<mxfile host="app.diagrams.net" modified="2024-02-07T17:28:23.813Z" agent="Mozilla/5.0 (Windows NT 10.0; Win64; x64) AppleWebKit/537.36 (KHTML, like Gecko) Chrome/120.0.0.0 Safari/537.36 OPR/106.0.0.0" etag="eOld7E0xi44YbyzUM3DP" version="23.1.1" type="github">
  <diagram name="Page-1" id="FHhNf3-o_XPEZzVcZrpC">
    <mxGraphModel dx="1811" dy="546" grid="1" gridSize="10" guides="1" tooltips="1" connect="1" arrows="1" fold="1" page="1" pageScale="1" pageWidth="850" pageHeight="1100" math="0" shadow="0">
      <root>
        <mxCell id="0" />
        <mxCell id="1" parent="0" />
        <mxCell id="FZeziZsOu5JKOuhYpep6-1" value="" style="ellipse;whiteSpace=wrap;html=1;aspect=fixed;" vertex="1" parent="1">
          <mxGeometry y="160" width="80" height="80" as="geometry" />
        </mxCell>
        <mxCell id="FZeziZsOu5JKOuhYpep6-2" value="" style="ellipse;whiteSpace=wrap;html=1;aspect=fixed;" vertex="1" parent="1">
          <mxGeometry x="-400" y="160" width="80" height="80" as="geometry" />
        </mxCell>
        <mxCell id="FZeziZsOu5JKOuhYpep6-3" value="" style="endArrow=classic;html=1;rounded=0;entryX=0;entryY=0.5;entryDx=0;entryDy=0;exitX=1;exitY=0.5;exitDx=0;exitDy=0;" edge="1" parent="1" source="FZeziZsOu5JKOuhYpep6-13">
          <mxGeometry width="50" height="50" relative="1" as="geometry">
            <mxPoint x="-480" y="200" as="sourcePoint" />
            <mxPoint x="-400" y="200" as="targetPoint" />
          </mxGeometry>
        </mxCell>
        <mxCell id="FZeziZsOu5JKOuhYpep6-4" value="" style="endArrow=classic;html=1;rounded=0;entryX=0;entryY=0.5;entryDx=0;entryDy=0;exitX=1;exitY=0.5;exitDx=0;exitDy=0;" edge="1" parent="1" target="FZeziZsOu5JKOuhYpep6-1">
          <mxGeometry width="50" height="50" relative="1" as="geometry">
            <mxPoint x="-120" y="200" as="sourcePoint" />
            <mxPoint x="10" y="230" as="targetPoint" />
          </mxGeometry>
        </mxCell>
        <mxCell id="FZeziZsOu5JKOuhYpep6-5" value="&lt;b style=&quot;font-size: 15px;&quot;&gt;S22&lt;/b&gt;" style="text;html=1;strokeColor=none;fillColor=none;align=center;verticalAlign=middle;whiteSpace=wrap;rounded=0;fontSize=15;" vertex="1" parent="1">
          <mxGeometry x="-390" y="185" width="60" height="30" as="geometry" />
        </mxCell>
        <mxCell id="FZeziZsOu5JKOuhYpep6-6" value="&lt;b&gt;&lt;font style=&quot;font-size: 15px;&quot;&gt;S71&lt;/font&gt;&lt;/b&gt;" style="text;html=1;strokeColor=none;fillColor=none;align=center;verticalAlign=middle;whiteSpace=wrap;rounded=0;" vertex="1" parent="1">
          <mxGeometry x="10" y="185" width="60" height="30" as="geometry" />
        </mxCell>
        <mxCell id="FZeziZsOu5JKOuhYpep6-7" value="U" style="text;html=1;strokeColor=none;fillColor=none;align=center;verticalAlign=middle;whiteSpace=wrap;rounded=0;fontSize=15;" vertex="1" parent="1">
          <mxGeometry x="-114" y="167.5" width="105" height="30" as="geometry" />
        </mxCell>
        <mxCell id="FZeziZsOu5JKOuhYpep6-8" value="" style="ellipse;whiteSpace=wrap;html=1;aspect=fixed;" vertex="1" parent="1">
          <mxGeometry x="200" y="160" width="80" height="80" as="geometry" />
        </mxCell>
        <mxCell id="FZeziZsOu5JKOuhYpep6-9" value="" style="ellipse;whiteSpace=wrap;html=1;aspect=fixed;" vertex="1" parent="1">
          <mxGeometry x="207.5" y="167.5" width="65" height="65" as="geometry" />
        </mxCell>
        <mxCell id="FZeziZsOu5JKOuhYpep6-10" value="" style="endArrow=classic;html=1;rounded=0;entryX=0;entryY=0.5;entryDx=0;entryDy=0;exitX=1;exitY=0.5;exitDx=0;exitDy=0;" edge="1" parent="1" target="FZeziZsOu5JKOuhYpep6-8">
          <mxGeometry width="50" height="50" relative="1" as="geometry">
            <mxPoint x="80" y="200" as="sourcePoint" />
            <mxPoint x="210" y="230" as="targetPoint" />
          </mxGeometry>
        </mxCell>
        <mxCell id="FZeziZsOu5JKOuhYpep6-11" value="&lt;b&gt;&lt;font style=&quot;font-size: 15px;&quot;&gt;S72&lt;/font&gt;&lt;/b&gt;" style="text;html=1;strokeColor=none;fillColor=none;align=center;verticalAlign=middle;whiteSpace=wrap;rounded=0;" vertex="1" parent="1">
          <mxGeometry x="210" y="185" width="60" height="30" as="geometry" />
        </mxCell>
        <mxCell id="FZeziZsOu5JKOuhYpep6-12" value="E" style="text;html=1;strokeColor=none;fillColor=none;align=center;verticalAlign=middle;whiteSpace=wrap;rounded=0;fontSize=15;" vertex="1" parent="1">
          <mxGeometry x="90" y="167.5" width="105" height="30" as="geometry" />
        </mxCell>
        <mxCell id="FZeziZsOu5JKOuhYpep6-13" value="" style="ellipse;whiteSpace=wrap;html=1;aspect=fixed;" vertex="1" parent="1">
          <mxGeometry x="-600" y="160" width="80" height="80" as="geometry" />
        </mxCell>
        <mxCell id="FZeziZsOu5JKOuhYpep6-14" value="" style="endArrow=classic;html=1;rounded=0;entryX=0;entryY=0.5;entryDx=0;entryDy=0;" edge="1" parent="1">
          <mxGeometry width="50" height="50" relative="1" as="geometry">
            <mxPoint x="-680" y="200" as="sourcePoint" />
            <mxPoint x="-600" y="200" as="targetPoint" />
          </mxGeometry>
        </mxCell>
        <mxCell id="FZeziZsOu5JKOuhYpep6-15" value="&lt;b style=&quot;font-size: 15px;&quot;&gt;S0&lt;/b&gt;" style="text;html=1;strokeColor=none;fillColor=none;align=center;verticalAlign=middle;whiteSpace=wrap;rounded=0;fontSize=15;" vertex="1" parent="1">
          <mxGeometry x="-590" y="185" width="60" height="30" as="geometry" />
        </mxCell>
        <mxCell id="FZeziZsOu5JKOuhYpep6-16" value="T" style="text;html=1;strokeColor=none;fillColor=none;align=center;verticalAlign=middle;whiteSpace=wrap;rounded=0;fontSize=15;" vertex="1" parent="1">
          <mxGeometry x="-520" y="167.5" width="105" height="30" as="geometry" />
        </mxCell>
        <mxCell id="FZeziZsOu5JKOuhYpep6-17" value="" style="ellipse;whiteSpace=wrap;html=1;aspect=fixed;" vertex="1" parent="1">
          <mxGeometry x="-200" y="160" width="80" height="80" as="geometry" />
        </mxCell>
        <mxCell id="FZeziZsOu5JKOuhYpep6-18" value="" style="endArrow=classic;html=1;rounded=0;entryX=0;entryY=0.5;entryDx=0;entryDy=0;exitX=1;exitY=0.5;exitDx=0;exitDy=0;" edge="1" parent="1" target="FZeziZsOu5JKOuhYpep6-17">
          <mxGeometry width="50" height="50" relative="1" as="geometry">
            <mxPoint x="-320" y="200" as="sourcePoint" />
            <mxPoint x="-190" y="230" as="targetPoint" />
          </mxGeometry>
        </mxCell>
        <mxCell id="FZeziZsOu5JKOuhYpep6-19" value="&lt;b&gt;&lt;font style=&quot;font-size: 15px;&quot;&gt;S70&lt;/font&gt;&lt;/b&gt;" style="text;html=1;strokeColor=none;fillColor=none;align=center;verticalAlign=middle;whiteSpace=wrap;rounded=0;" vertex="1" parent="1">
          <mxGeometry x="-190" y="185" width="60" height="30" as="geometry" />
        </mxCell>
        <mxCell id="FZeziZsOu5JKOuhYpep6-20" value="R" style="text;html=1;strokeColor=none;fillColor=none;align=center;verticalAlign=middle;whiteSpace=wrap;rounded=0;fontSize=15;" vertex="1" parent="1">
          <mxGeometry x="-314" y="167.5" width="105" height="30" as="geometry" />
        </mxCell>
        <mxCell id="FZeziZsOu5JKOuhYpep6-21" value="" style="ellipse;whiteSpace=wrap;html=1;aspect=fixed;" vertex="1" parent="1">
          <mxGeometry x="200" y="280" width="80" height="80" as="geometry" />
        </mxCell>
        <mxCell id="FZeziZsOu5JKOuhYpep6-22" value="" style="ellipse;whiteSpace=wrap;html=1;aspect=fixed;" vertex="1" parent="1">
          <mxGeometry x="-200" y="280" width="80" height="80" as="geometry" />
        </mxCell>
        <mxCell id="FZeziZsOu5JKOuhYpep6-23" value="" style="endArrow=classic;html=1;rounded=0;entryX=0;entryY=0.5;entryDx=0;entryDy=0;exitX=1;exitY=0.5;exitDx=0;exitDy=0;" edge="1" parent="1" source="FZeziZsOu5JKOuhYpep6-33">
          <mxGeometry width="50" height="50" relative="1" as="geometry">
            <mxPoint x="-280" y="320" as="sourcePoint" />
            <mxPoint x="-200" y="320" as="targetPoint" />
          </mxGeometry>
        </mxCell>
        <mxCell id="FZeziZsOu5JKOuhYpep6-24" value="" style="endArrow=classic;html=1;rounded=0;entryX=0;entryY=0.5;entryDx=0;entryDy=0;exitX=1;exitY=0.5;exitDx=0;exitDy=0;" edge="1" parent="1" target="FZeziZsOu5JKOuhYpep6-21">
          <mxGeometry width="50" height="50" relative="1" as="geometry">
            <mxPoint x="80" y="320" as="sourcePoint" />
            <mxPoint x="210" y="350" as="targetPoint" />
          </mxGeometry>
        </mxCell>
        <mxCell id="FZeziZsOu5JKOuhYpep6-25" value="&lt;b style=&quot;font-size: 15px;&quot;&gt;S73&lt;/b&gt;" style="text;html=1;strokeColor=none;fillColor=none;align=center;verticalAlign=middle;whiteSpace=wrap;rounded=0;fontSize=15;" vertex="1" parent="1">
          <mxGeometry x="-190" y="305" width="60" height="30" as="geometry" />
        </mxCell>
        <mxCell id="FZeziZsOu5JKOuhYpep6-26" value="&lt;b&gt;&lt;font style=&quot;font-size: 15px;&quot;&gt;S75&lt;/font&gt;&lt;/b&gt;" style="text;html=1;strokeColor=none;fillColor=none;align=center;verticalAlign=middle;whiteSpace=wrap;rounded=0;" vertex="1" parent="1">
          <mxGeometry x="210" y="305" width="60" height="30" as="geometry" />
        </mxCell>
        <mxCell id="FZeziZsOu5JKOuhYpep6-27" value="S" style="text;html=1;strokeColor=none;fillColor=none;align=center;verticalAlign=middle;whiteSpace=wrap;rounded=0;fontSize=15;" vertex="1" parent="1">
          <mxGeometry x="86" y="287.5" width="105" height="30" as="geometry" />
        </mxCell>
        <mxCell id="FZeziZsOu5JKOuhYpep6-28" value="" style="ellipse;whiteSpace=wrap;html=1;aspect=fixed;" vertex="1" parent="1">
          <mxGeometry x="400" y="280" width="80" height="80" as="geometry" />
        </mxCell>
        <mxCell id="FZeziZsOu5JKOuhYpep6-29" value="" style="ellipse;whiteSpace=wrap;html=1;aspect=fixed;" vertex="1" parent="1">
          <mxGeometry x="407.5" y="287.5" width="65" height="65" as="geometry" />
        </mxCell>
        <mxCell id="FZeziZsOu5JKOuhYpep6-30" value="" style="endArrow=classic;html=1;rounded=0;entryX=0;entryY=0.5;entryDx=0;entryDy=0;exitX=1;exitY=0.5;exitDx=0;exitDy=0;" edge="1" parent="1" target="FZeziZsOu5JKOuhYpep6-28">
          <mxGeometry width="50" height="50" relative="1" as="geometry">
            <mxPoint x="280" y="320" as="sourcePoint" />
            <mxPoint x="410" y="350" as="targetPoint" />
          </mxGeometry>
        </mxCell>
        <mxCell id="FZeziZsOu5JKOuhYpep6-31" value="&lt;b&gt;&lt;font style=&quot;font-size: 15px;&quot;&gt;S76&lt;/font&gt;&lt;/b&gt;" style="text;html=1;strokeColor=none;fillColor=none;align=center;verticalAlign=middle;whiteSpace=wrap;rounded=0;" vertex="1" parent="1">
          <mxGeometry x="410" y="305" width="60" height="30" as="geometry" />
        </mxCell>
        <mxCell id="FZeziZsOu5JKOuhYpep6-32" value="E" style="text;html=1;strokeColor=none;fillColor=none;align=center;verticalAlign=middle;whiteSpace=wrap;rounded=0;fontSize=15;" vertex="1" parent="1">
          <mxGeometry x="290" y="287.5" width="105" height="30" as="geometry" />
        </mxCell>
        <mxCell id="FZeziZsOu5JKOuhYpep6-33" value="" style="ellipse;whiteSpace=wrap;html=1;aspect=fixed;" vertex="1" parent="1">
          <mxGeometry x="-400" y="280" width="80" height="80" as="geometry" />
        </mxCell>
        <mxCell id="FZeziZsOu5JKOuhYpep6-34" value="" style="endArrow=classic;html=1;rounded=0;entryX=0;entryY=0.5;entryDx=0;entryDy=0;" edge="1" parent="1">
          <mxGeometry width="50" height="50" relative="1" as="geometry">
            <mxPoint x="-520" y="320" as="sourcePoint" />
            <mxPoint x="-400" y="320" as="targetPoint" />
          </mxGeometry>
        </mxCell>
        <mxCell id="FZeziZsOu5JKOuhYpep6-35" value="&lt;b style=&quot;font-size: 15px;&quot;&gt;S19&lt;/b&gt;" style="text;html=1;strokeColor=none;fillColor=none;align=center;verticalAlign=middle;whiteSpace=wrap;rounded=0;fontSize=15;" vertex="1" parent="1">
          <mxGeometry x="-390" y="305" width="60" height="30" as="geometry" />
        </mxCell>
        <mxCell id="FZeziZsOu5JKOuhYpep6-36" value="A" style="text;html=1;strokeColor=none;fillColor=none;align=center;verticalAlign=middle;whiteSpace=wrap;rounded=0;fontSize=15;" vertex="1" parent="1">
          <mxGeometry x="-320" y="287.5" width="105" height="30" as="geometry" />
        </mxCell>
        <mxCell id="FZeziZsOu5JKOuhYpep6-37" value="" style="ellipse;whiteSpace=wrap;html=1;aspect=fixed;" vertex="1" parent="1">
          <mxGeometry y="280" width="80" height="80" as="geometry" />
        </mxCell>
        <mxCell id="FZeziZsOu5JKOuhYpep6-38" value="" style="endArrow=classic;html=1;rounded=0;entryX=0;entryY=0.5;entryDx=0;entryDy=0;exitX=1;exitY=0.5;exitDx=0;exitDy=0;" edge="1" parent="1" target="FZeziZsOu5JKOuhYpep6-37">
          <mxGeometry width="50" height="50" relative="1" as="geometry">
            <mxPoint x="-120" y="320" as="sourcePoint" />
            <mxPoint x="10" y="350" as="targetPoint" />
          </mxGeometry>
        </mxCell>
        <mxCell id="FZeziZsOu5JKOuhYpep6-39" value="&lt;b&gt;&lt;font style=&quot;font-size: 15px;&quot;&gt;S74&lt;/font&gt;&lt;/b&gt;" style="text;html=1;strokeColor=none;fillColor=none;align=center;verticalAlign=middle;whiteSpace=wrap;rounded=0;" vertex="1" parent="1">
          <mxGeometry x="10" y="305" width="60" height="30" as="geometry" />
        </mxCell>
        <mxCell id="FZeziZsOu5JKOuhYpep6-40" value="L" style="text;html=1;strokeColor=none;fillColor=none;align=center;verticalAlign=middle;whiteSpace=wrap;rounded=0;fontSize=15;" vertex="1" parent="1">
          <mxGeometry x="-114" y="287.5" width="105" height="30" as="geometry" />
        </mxCell>
        <mxCell id="FZeziZsOu5JKOuhYpep6-41" value="" style="ellipse;whiteSpace=wrap;html=1;aspect=fixed;" vertex="1" parent="1">
          <mxGeometry x="-600" y="280" width="80" height="80" as="geometry" />
        </mxCell>
        <mxCell id="FZeziZsOu5JKOuhYpep6-42" value="" style="endArrow=classic;html=1;rounded=0;entryX=0;entryY=0.5;entryDx=0;entryDy=0;" edge="1" parent="1">
          <mxGeometry width="50" height="50" relative="1" as="geometry">
            <mxPoint x="-680" y="320" as="sourcePoint" />
            <mxPoint x="-600" y="320" as="targetPoint" />
          </mxGeometry>
        </mxCell>
        <mxCell id="FZeziZsOu5JKOuhYpep6-43" value="&lt;b style=&quot;font-size: 15px;&quot;&gt;S0&lt;/b&gt;" style="text;html=1;strokeColor=none;fillColor=none;align=center;verticalAlign=middle;whiteSpace=wrap;rounded=0;fontSize=15;" vertex="1" parent="1">
          <mxGeometry x="-590" y="305" width="60" height="30" as="geometry" />
        </mxCell>
        <mxCell id="FZeziZsOu5JKOuhYpep6-44" value="F" style="text;html=1;strokeColor=none;fillColor=none;align=center;verticalAlign=middle;whiteSpace=wrap;rounded=0;fontSize=15;" vertex="1" parent="1">
          <mxGeometry x="-520" y="287.5" width="105" height="30" as="geometry" />
        </mxCell>
      </root>
    </mxGraphModel>
  </diagram>
</mxfile>
